<?xml version="1.0" encoding="UTF-8"?>
<svg id="b" data-name="Calque_2" xmlns="http://www.w3.org/2000/svg" width="52.708mm" height="23.901mm" viewBox="0 0 149.408 67.752">
  <g id="c" data-name="Calque_1">
    <path d="M146.781,33.792c-10.088-3.268-23.396-5.765-31.191-12.655-8.16-7.213-9.421-12.527-19.562-16.729-20.831-8.633-41.817-3.415-62.382,5.588C22.597,14.833,9.735,17.459,1.411,26.176c-1.5,1.57-1.998,3.805-.53,5.619,1.234,1.525,4.134,2.086,5.619.53C20.606,17.553,39.571,7.79,60.077,6.371c10.636-.736,21.518.987,31.448,4.833,9.903,3.835,14.829,5.114,22.726,12.081,6.261,5.524,14.074,10.246,21.349,14.291-26.472,11.235-55.675,26.293-84.211,21.738-7.714-1.231-12.873-4.518-21.569-8.75-2.714-1.32-6.272-3.614-8.254-6.096-2.16-2.705.973-5.773,2.967-7.55,7.722-6.884,20.673-10.851,30.915-11.644,7.336-1.124-1.719,1.14-2.215,7.187-1.171,14.294,10.847,14.246,15.468,14.93,4.779.707,11.463-.013,15.758-2.356,4.264-2.326,11.411-6.952,7.013-16.988-1.922-4.386-5.794-7.719-15.83-9.803-9.121-1.894-23.688-1.769-32.745.465-8.916,2.2-13.8,9.17-20.444,15.61-3.733,3.619-10.782,5.771-9.212,11.161,1.297,4.452,5.697,3.712,9.712,5.573,9.128,4.231,17.357,14.525,27.248,16.138,10.045,1.638,19.553-.612,29.478-2.827,42.97-9.589,43.512-23.254,67.366-23.218,3.281.005,3.101-6.262-.264-7.352Z" fill="#a697c8"/>
  </g>
</svg>